<svg width="65" height="64" viewBox="0 0 65 64" fill="none" xmlns="http://www.w3.org/2000/svg">
<path fill-rule="evenodd" clip-rule="evenodd" d="M16.9404 -0.00460815C8.10387 -0.00460815 0.94043 7.15883 0.94043 15.9954V47.5679C0.94043 56.4045 8.10387 63.5679 16.9404 63.5679H48.5129C57.3495 63.5679 64.5129 56.4045 64.5129 47.5679V15.9954C64.5129 7.15884 57.3495 -0.00460815 48.5129 -0.00460815H16.9404ZM51.3981 26.2246C51.3981 13.7948 41.3586 12.0418 32.9128 12.0418C19.8456 12.0418 13.4668 24.631 13.4668 32.7155C13.4667 42.957 16.7048 50.8537 22.2359 51.0842C27.767 51.3146 31.3706 48.6772 32.9128 43.7538C34.2961 39.3378 37.8958 38.4277 42.3436 37.3032C42.8546 37.174 43.3769 37.042 43.9083 36.9015C49.2335 35.4933 51.3981 31.1646 51.3981 26.2246Z" fill="white"/>
<circle cx="42.2041" cy="22.166" r="2.78804" fill="white"/>
<circle cx="32.4326" cy="19.378" r="2.78804" fill="white"/>
<circle cx="23.5954" cy="24.3351" r="2.78804" fill="white"/>
</svg>
